ply
format ascii 1.0
comment Created by Blender 2.77 (sub 0) - www.blender.org, source file: ''
element vertex 20
property float x
property float y
property float z
property float nx
property float ny
property float nz
property float s
property float t
element face 6
property list uchar uint vertex_indices
end_header
-1.000000 -1.000000 1.000000 -0.577349 -0.577349 0.577349 0.000000 0.000000
-1.000000 -1.000000 -1.000000 -0.577349 -0.577349 -0.577349 1.000000 0.000000
1.000000 -1.000000 -1.000000 0.577349 -0.577349 -0.577349 1.000000 1.000000
1.000000 -1.000000 1.000000 0.577349 -0.577349 0.577349 0.000000 1.000000
-1.000000 1.000000 0.999999 -0.577349 0.577349 0.577349 0.000000 0.000000
1.000000 1.000000 1.000000 0.577349 0.577349 0.577349 1.000000 0.000000
1.000000 1.000000 -1.000000 0.577349 0.577349 -0.577349 1.000000 1.000000
-0.999999 1.000000 -1.000001 -0.577349 0.577349 -0.577349 0.000000 1.000000
-1.000000 1.000000 0.999999 -0.577349 0.577349 0.577349 1.000000 0.000000
-0.999999 1.000000 -1.000001 -0.577349 0.577349 -0.577349 1.000000 1.000000
-1.000000 -1.000000 -1.000000 -0.577349 -0.577349 -0.577349 0.000000 1.000000
-1.000000 -1.000000 -1.000000 -0.577349 -0.577349 -0.577349 0.000000 0.000000
-0.999999 1.000000 -1.000001 -0.577349 0.577349 -0.577349 1.000000 0.000000
1.000000 -1.000000 -1.000000 0.577349 -0.577349 -0.577349 0.000000 1.000000
1.000000 -1.000000 -1.000000 0.577349 -0.577349 -0.577349 0.000000 0.000000
1.000000 1.000000 -1.000000 0.577349 0.577349 -0.577349 1.000000 0.000000
1.000000 1.000000 1.000000 0.577349 0.577349 0.577349 1.000000 1.000000
-1.000000 -1.000000 1.000000 -0.577349 -0.577349 0.577349 1.000000 0.000000
1.000000 -1.000000 1.000000 0.577349 -0.577349 0.577349 1.000000 1.000000
1.000000 1.000000 1.000000 0.577349 0.577349 0.577349 0.000000 1.000000
4 0 1 2 3
4 4 5 6 7
4 0 8 9 10
4 11 12 6 13
4 14 15 16 3
4 4 17 18 19
