ply
format ascii 1.0
comment Created by Blender 2.77 (sub 0) - www.blender.org, source file: ''
element vertex 4
property float x
property float y
property float z
property float nx
property float ny
property float nz
property float s
property float t
element face 1
property list uchar uint vertex_indices
end_header
10.000000 0.000000 -10.000000 0.000000 1.000000 0.000000 -1.999500 -1.999499
-10.000000 0.000000 -10.000000 0.000000 1.000000 0.000000 2.999500 -1.999500
-10.000000 0.000000 10.000000 0.000000 1.000000 0.000000 2.999500 2.999500
10.000000 0.000000 10.000000 0.000000 1.000000 0.000000 -1.999498 2.999500
4 0 1 2 3
